<svg width="271" height="40" fill="none" xmlns="http://www.w3.org/2000/svg"><path d="M261.135.00013h-100.6c-.367 0-.729 0-1.095.00199999-.306.002-.61.00780998-.919.01270001-.671.0079017-1.341.066976-2.004.176709-.661.112123-1.302.323505-1.901.626998-.598.306063-1.144.703753-1.618 1.178653-.478.47357-.876 1.02095-1.179 1.62109-.304.59895-.514 1.24077-.625 1.90331-.111.66171-.171 1.33104-.179 2.002-.009.30659-.01.61421-.015.92085V31.5586c.005.3105.006.6113.015.9219.008.6709.068 1.3402.179 2.0019.11.6629.321 1.3051.625 1.9043.303.5982.701 1.1434 1.179 1.6143.473.477 1.019.875 1.618 1.1787.599.3043 1.239.517 1.901.6308.663.1089 1.333.168 2.004.1768.309.0068.613.0107.919.0107.366.002.728.002 1.095.002h100.6c.359 0 .724 0 1.084-.002.304 0 .617-.0039.922-.0107.67-.0084 1.338-.0675 2-.1768.663-.1146 1.307-.3272 1.908-.6308.598-.3039 1.144-.7018 1.617-1.1787.476-.4728.875-1.0175 1.182-1.6143.302-.5996.51-1.2417.619-1.9043.111-.6617.173-1.3309.185-2.0019.004-.3106.004-.6114.004-.9219.008-.3633.008-.7246.008-1.0938V9.53623c0-.36621 0-.72949-.008-1.09179 0-.30664 0-.61426-.004-.92089-.012-.67102-.074-1.3402-.185-2.002-.109-.66215-.318-1.30393-.619-1.90331-.618-1.20292-1.596-2.18209-2.799-2.799793-.601-.302751-1.245-.514078-1.908-.626998-.661-.1102165-1.33-.1693113-2-.176759-.305-.00488003-.618-.01074001-.922-.01269001C261.859 0 261.494 0 261.135 0v.00013z" fill="#A6A6A6"/><path d="M159.445 39.125c-.305 0-.602-.0039-.904-.0107-.627-.0081-1.251-.0626-1.87-.1631-.576-.0992-1.134-.2839-1.656-.5479-.518-.2617-.989-.605-1.397-1.0166-.414-.4067-.759-.8784-1.021-1.3965-.264-.5214-.448-1.0803-.543-1.6572-.103-.6198-.158-1.2466-.166-1.8749-.007-.2109-.015-.9131-.015-.9131V8.44445s.009-.69141.015-.89454c.007-.62732.063-1.25315.165-1.87207.096-.57848.279-1.13898.544-1.6621.26-.51768.603-.98976 1.015-1.39794.411-.41206.884-.75708 1.402-1.02247.521-.26312 1.078-.44648 1.653-.54394.621-.101432 1.248-.156272 1.876-.164058l.902-.01221h102.769l.913.0127c.623.007399 1.244.06175 1.858.162588.581.09869 1.145.28333 1.671.54785 1.038.53485 1.883 1.38102 2.415 2.41993.261.5195.441 1.07543.535 1.64891.104.624.162 1.25475.174 1.88721.003.2832.003.5874.003.89014.008.37499.008.73192.008 1.09178V30.4649c0 .3633 0 .7178-.008 1.0752 0 .3252 0 .6231-.004.9297-.011.6211-.069 1.2406-.171 1.8534-.093.5811-.275 1.1444-.54 1.67-.263.5125-.606.9801-1.015 1.3857-.409.4138-.881.7591-1.4 1.0225-.525.266-1.087.4514-1.668.5498-.618.101-1.243.1555-1.869.1631-.293.0068-.599.0107-.897.0107l-1.084.002-101.69-.002z" fill="#000"/><path d="M175.769 20.3007c.011-.8346.232-1.653.644-2.379.412-.7259 1.001-1.3359 1.712-1.7731-.451-.6451-1.047-1.1761-1.74-1.5506-.693-.3746-1.464-.5824-2.251-.607-1.679-.1763-3.307 1.0048-4.163 1.0048-.872 0-2.189-.9873-3.608-.9582-.918.0297-1.812.2965-2.596.7746-.784.4781-1.431 1.151-1.877 1.9533-1.934 3.3485-.491 8.2695 1.361 10.9762.927 1.3253 2.01 2.8058 3.428 2.7533 1.387-.0575 1.905-.8845 3.579-.8845 1.659 0 2.145.8845 3.591.8511 1.489-.0242 2.426-1.3312 3.321-2.6692.666-.9443 1.178-1.988 1.518-3.0925-.865-.3657-1.603-.9779-2.122-1.7602-.519-.7823-.796-1.7001-.797-2.639zm-2.732-8.0896c.812-.9742 1.212-2.22642 1.115-3.49064-1.24.13022-2.385.72277-3.208 1.65964-.402.4576-.71.9901-.906 1.5668-.196.5768-.277 1.1866-.238 1.7945.621.0064 1.234-.128 1.795-.3931.56-.2651 1.054-.6539 1.442-1.1372zm20.265 14.9286h-4.733l-1.137 3.3565h-2.005l4.484-12.4181h2.083l4.483 12.4181h-2.039l-1.136-3.3565zm-4.243-1.5488h3.752l-1.85-5.4473h-.051l-1.851 5.4473zm17.101.3789c0 2.8135-1.506 4.6211-3.779 4.6211-.575.0301-1.148-.1025-1.652-.3826-.503-.2801-.918-.6965-1.196-1.2014h-.043v4.4844h-1.859V21.4425h1.799v1.5058h.034c.291-.5024.713-.9166 1.221-1.1985.507-.2818 1.082-.4208 1.662-.4021 2.298 0 3.813 1.8165 3.813 4.6221zm-1.91 0c0-1.833-.948-3.0381-2.393-3.0381-1.42 0-2.375 1.2305-2.375 3.0381 0 1.8243.955 3.0459 2.375 3.0459 1.445 0 2.393-1.1963 2.393-3.0459zm11.875 0c0 2.8135-1.506 4.6211-3.779 4.6211-.575.0301-1.148-.1025-1.652-.3826s-.918-.6965-1.196-1.2014h-.043v4.4844h-1.859V21.4425h1.799v1.5058h.034c.291-.5024.713-.9166 1.22-1.1985.508-.2818 1.083-.4208 1.663-.4021 2.298 0 3.813 1.8164 3.813 4.6221zm-1.911 0c0-1.833-.947-3.0381-2.392-3.0381-1.42 0-2.375 1.2305-2.375 3.0381 0 1.8243.955 3.0459 2.375 3.0459 1.445 0 2.392-1.1963 2.392-3.0459zm8.496 1.0664c.138 1.2314 1.334 2.0399 2.969 2.0399 1.567 0 2.694-.8085 2.694-1.9189 0-.9639-.68-1.541-2.29-1.9365l-1.609-.3877c-2.28-.5508-3.339-1.6172-3.339-3.3477 0-2.1425 1.867-3.6142 4.519-3.6142 2.624 0 4.423 1.4717 4.483 3.6142h-1.876c-.112-1.2392-1.137-1.9873-2.634-1.9873-1.497 0-2.521.7569-2.521 1.8584 0 .878.654 1.3946 2.255 1.79l1.368.336c2.548.6025 3.606 1.626 3.606 3.4423 0 2.3233-1.85 3.7783-4.794 3.7783-2.753 0-4.613-1.4208-4.733-3.6669l1.902.0001zm11.636-7.7363v2.1426h1.722v1.4717h-1.722v4.9912c0 .7754.345 1.1367 1.102 1.1367.204-.0036.408-.0179.611-.043v1.4629c-.34.0636-.686.0924-1.032.0859-1.833 0-2.548-.6885-2.548-2.4443v-5.1894h-1.316v-1.4717h1.316v-2.1426h1.867zm2.719 6.67c0-2.8487 1.678-4.6387 4.294-4.6387 2.625 0 4.295 1.79 4.295 4.6387 0 2.8564-1.661 4.6386-4.295 4.6386-2.633 0-4.294-1.7822-4.294-4.6386zm6.695 0c0-1.9542-.895-3.1075-2.401-3.1075-1.506 0-2.4 1.1621-2.4 3.1075 0 1.9619.894 3.1064 2.4 3.1064 1.506 0 2.401-1.1445 2.401-3.1064zm3.426-4.5274h1.773v1.541h.043c.119-.4813.401-.9066.798-1.2045.397-.2979.884-.4502 1.379-.4312.214-.0008.428.0225.637.0693v1.7383c-.27-.0826-.552-.1206-.835-.1123-.27-.011-.539.0366-.789.1395-.25.1029-.474.2587-.658.4565-.184.1979-.323.4333-.408.69-.084.2566-.112.5285-.082.797v5.3702h-1.858v-9.0538zm13.198 6.3945c-.25 1.6435-1.85 2.7714-3.898 2.7714-2.634 0-4.269-1.7646-4.269-4.5956 0-2.8398 1.644-4.6816 4.191-4.6816 2.505 0 4.08 1.7207 4.08 4.4657v.6368h-6.395v.1123c-.029.3332.012.6688.123.9847.11.3158.286.6046.516.8471.231.2426.51.4333.82.5596.309.1263.643.1853.977.173.439.0411.88-.0606 1.256-.29.377-.2295.67-.5744.835-.9834h1.764zm-6.282-2.7022h4.526c.017-.2995-.028-.5994-.133-.8806-.105-.2812-.266-.5377-.475-.7535-.208-.2157-.459-.3861-.737-.5003-.277-.1142-.575-.1698-.875-.1634-.303-.0018-.603.0564-.883.1711s-.535.2838-.749.4974c-.214.2137-.384.4676-.5.7473-.116.2796-.175.5794-.174.8821v-.0001zM188.826 8.73114c.39-.02796.781.0309 1.145.17233s.692.36191.961.64553c.268.28362.471.6233.592.9946.121.3712.159.7648.11 1.1523 0 1.9063-1.03 3.002-2.808 3.002h-2.155V8.73114h2.155zm-1.228 5.12296h1.125c.278.0166.557-.029.815-.1336.259-.1047.491-.2656.679-.4712.189-.2055.329-.4505.411-.7171.082-.2667.103-.5482.062-.8241.038-.2748.015-.5546-.069-.8193-.083-.2646-.223-.5076-.411-.7115-.188-.20397-.419-.36378-.676-.46802-.257-.10423-.534-.15031-.811-.13494h-1.125v4.27976zm5.083-1.4097c-.029-.2959.005-.5945.099-.8766.094-.282.246-.5414.446-.7613.2-.22.443-.3958.715-.5161.272-.1202.566-.1824.863-.1824.297 0 .591.0622.863.1824.272.1203.516.2961.716.5161.2.2199.352.4793.445.7613.094.2821.128.5807.1.8766.029.2962-.005.5952-.098.8777-.094.2825-.246.5423-.446.7627-.2.2204-.444.3966-.716.5171-.272.1205-.566.1828-.864.1828-.297 0-.592-.0623-.864-.1828s-.516-.2967-.716-.5171c-.2-.2204-.352-.4802-.445-.7627-.094-.2825-.127-.5815-.098-.8777zm3.333 0c0-.9761-.439-1.5469-1.208-1.5469-.773 0-1.207.5708-1.207 1.5469 0 .9839.434 1.5503 1.207 1.5503.769-.0001 1.208-.5704 1.208-1.5503zm6.559 2.2535h-.922l-.93-3.3164h-.071l-.926 3.3164h-.913l-1.242-4.503h.902l.806 3.4361h.067l.926-3.4361h.852l.926 3.4361h.07l.803-3.4361h.889l-1.237 4.503zm2.281-4.503h.855v.7153h.066c.113-.2569.303-.4723.544-.6161.241-.1438.521-.2089.8-.1862.219-.0164.439.0166.644.0967.204.0801.388.2052.538.3661.15.1608.261.3533.327.5631.065.2098.082.4316.05.649v2.9151h-.889V12.006c0-.7237-.314-1.0836-.972-1.0836-.148-.0069-.297.0184-.435.0742-.138.0559-.262.1409-.364.2493-.103.1084-.18.2376-.228.3787-.047.1411-.064.2909-.048.439v2.6343h-.888v-4.503zm5.24-1.75777h.888v6.26077h-.888V8.43713zm2.124 4.00727c-.029-.2959.005-.5945.099-.8766s.246-.5414.446-.7614c.2-.22.444-.3958.715-.5161.272-.1203.566-.1824.864-.1824.297 0 .591.0621.863.1824s.515.2961.715.5161c.2.22.352.4793.446.7614.094.2821.128.5807.099.8766.029.2963-.004.5952-.098.8778-.094.2825-.245.5423-.445.7627-.2.2204-.444.3966-.716.5171-.272.1205-.567.1828-.864.1828-.298 0-.592-.0623-.865-.1828-.272-.1205-.516-.2967-.716-.5171-.2-.2204-.351-.4802-.445-.7627-.094-.2826-.127-.5815-.098-.8778zm3.333 0c0-.9761-.439-1.5469-1.208-1.5469-.773 0-1.207.5708-1.207 1.5469 0 .9839.434 1.5503 1.207 1.5503.769 0 1.208-.5703 1.208-1.5503zm1.85.98c0-.8106.603-1.2779 1.675-1.3443l1.219-.0703v-.3887c0-.4756-.314-.7441-.921-.7441-.497 0-.84.1821-.939.5005h-.86c.091-.7735.818-1.2696 1.84-1.2696 1.128 0 1.765.562 1.765 1.5132v3.0768h-.855v-.6329h-.071c-.142.227-.343.4121-.58.5363-.238.1242-.504.1831-.772.1708-.189.0196-.38-.0005-.561-.0592-.181-.0587-.347-.1547-.489-.2816-.141-.127-.254-.2822-.332-.4556-.078-.1735-.118-.3612-.119-.5513zm2.894-.3848v-.3765l-1.099.0704c-.62.0415-.902.2524-.902.6494 0 .4053.352.6411.835.6411.142.0143.285 0 .421-.042.136-.0421.262-.1112.371-.203.109-.0918.198-.2046.262-.3317.065-.127.103-.2656.112-.4077zm2.053-.5951c0-1.4229.732-2.3242 1.869-2.3242.282-.013.561.0544.806.1943.244.1399.444.3465.575.5957h.067V8.43713h.888v6.26077h-.851v-.7114h-.071c-.141.2475-.348.4515-.597.59-.249.1385-.532.2061-.817.1956-1.145.0001-1.869-.9013-1.869-2.3276zm.918 0c0 .9551.45 1.5298 1.203 1.5298.749 0 1.212-.583 1.212-1.5259 0-.9385-.468-1.5298-1.212-1.5298-.748 0-1.203.5786-1.203 1.5259zm6.964-.0001c-.028-.2959.006-.5945.099-.8766.094-.282.246-.5414.446-.7613.2-.22.444-.3958.715-.5161.272-.1202.566-.1824.864-.1824.297 0 .591.0622.863.1824.272.1203.515.2961.715.5161.2.2199.352.4793.446.7613.094.2821.127.5807.099.8766.029.2962-.005.5952-.098.8777-.094.2825-.245.5423-.445.7627-.2.2204-.444.3966-.716.5171-.273.1205-.567.1828-.864.1828-.298 0-.592-.0623-.865-.1828-.272-.1205-.516-.2967-.716-.5171-.2-.2204-.351-.4802-.445-.7627-.093-.2825-.127-.5815-.098-.8777zm3.333 0c0-.9761-.438-1.5469-1.208-1.5469-.772 0-1.207.5708-1.207 1.5469 0 .9839.435 1.5503 1.207 1.5503.77-.0001 1.208-.5704 1.208-1.5503zm2.106-2.2495h.856v.7153h.066c.113-.2569.303-.4723.544-.6161.241-.1438.52-.2089.8-.1862.219-.0164.439.0166.644.0967.204.0801.388.2052.538.3661.15.1608.261.3533.326.5631.066.2098.083.4316.051.649v2.9151h-.889V12.006c0-.7237-.314-1.0836-.972-1.0836-.148-.0069-.297.0184-.435.0742-.138.0559-.262.1409-.365.2493-.102.1084-.179.2376-.227.3787-.047.1411-.064.2909-.048.439v2.6343h-.889v-4.503zm8.846-1.12105v1.14165h.976v.7485h-.976v2.3154c0 .4717.194.6782.637.6782.113-.0003.226-.0072.339-.0205v.7403c-.16.0285-.322.0437-.484.0454-.988 0-1.382-.3477-1.382-1.2158v-2.543h-.714v-.7486h.714V9.07385h.89zm2.19-.63672h.88v2.48147h.071c.118-.2593.313-.4759.559-.6203.246-.1443.53-.2094.814-.1864.218-.0118.436.0246.638.1066.202.0821.384.2077.532.3681.148.1603.259.3514.325.5595s.085.4282.056.6446v2.9072h-.89v-2.688c0-.7193-.335-1.0835-.963-1.0835-.153-.0125-.306.0085-.45.0615-.144.0531-.274.1369-.382.2456-.108.1088-.191.2398-.243.3839-.052.1442-.072.2979-.059.4506v2.6299h-.888V8.43713zm9.056 5.04497c-.12.4115-.382.7675-.739 1.0057-.356.2381-.786.3433-1.212.297-.297.0078-.591-.049-.864-.1665-.272-.1175-.516-.293-.714-.5141-.198-.2211-.345-.4827-.432-.7665-.087-.2839-.111-.5832-.07-.8771-.039-.2949-.015-.5949.071-.8795.087-.2847.233-.5475.43-.7706.197-.223.44-.4012.711-.5224.272-.1212.567-.1827.864-.1801 1.253 0 2.009.856 2.009 2.27v.3101h-3.18v.0498c-.014.1653.007.3316.061.4884.054.1567.141.3004.254.4219.112.1214.25.218.402.2834.152.0654.317.0982.482.0963.213.0256.428-.0127.619-.1099s.348-.249.453-.436l.855.0001zm-3.126-1.4512h2.275c.011-.1512-.01-.303-.061-.4457s-.131-.2732-.235-.383c-.105-.1099-.231-.1967-.371-.2549-.14-.0582-.29-.0864-.442-.083-.153-.0019-.306.027-.448.0849-.143.058-.272.1438-.381.2525-.108.1088-.194.2381-.252.3805-.058.1424-.087.295-.085.4487z" fill="#fff"/><path d="M130 39.9999H5c-2.75 0-5-2.2499-5-4.9999V4.99999C0 2.25 2.25 0 5 0h125c2.75 0 5 2.25 5 4.99999V35c0 2.75-2.25 4.9999-5 4.9999z" fill="#000"/><path d="M130 .799999c2.32 0 4.2 1.880001 4.2 4.199991V35c0 2.32-1.88 4.2-4.2 4.2H5C2.68 39.2.8 37.32.8 35V4.99999C.8 2.68 2.68.799999 5 .799999h125zM130 0H5C2.25 0 0 2.25 0 4.99999V35c0 2.75 2.25 4.9999 5 4.9999h125c2.75 0 5-2.2499 5-4.9999V4.99999C135 2.25 132.75 0 130 0z" fill="#A6A6A6"/><path d="M47.42 10.2399c0 .84-.25 1.51-.75 2-.56.59-1.3.89-2.2.89-.87 0-1.6-.3-2.21-.9-.61-.6-.91-1.35-.91-2.22999 0-.89001.3-1.63002.91-2.23003.61-.6 1.34-.90001 2.21-.90001.43 0 .84.08 1.23.25001.39.17.7.39.94.67l-.53.53001c-.4-.47001-.94-.71001-1.64-.71001-.63 0-1.18.22-1.64.67001-.46.44001-.69 1.02001-.69 1.73001s.23 1.29.69 1.73c.46.44 1.01.67 1.64.67.67 0 1.23-.22 1.68-.67.29-.29.46-.7.5-1.22h-2.18v-.71999h2.91c.02.15.04.29999.04.43999zm4.61-2.50002H49.3v1.9h2.46v.72002H49.3v1.9h2.73v.74h-3.5V6.99988h3.5v.74zm3.25 5.26002h-.77V7.73988h-1.68v-.74h4.12v.74h-1.68v5.26002h.01zm4.66 0V6.99988h.77v6.00002h-.77zm4.19 0h-.77V7.73988h-1.68v-.74h4.12v.74h-1.68v5.26002h.01zm9.48-.78c-.59.61-1.32.91-2.2.91-.88 0-1.61-.3-2.2-.91-.59-.61-.88-1.35-.88-2.21999 0-.87001.29-1.62002.88-2.22003.59-.61 1.32-.91001 2.2-.91001.87 0 1.6.30001 2.2.91001.59.61001.89 1.35002.89 2.22003-.01.87999-.3 1.61999-.89 2.21999zm-3.83-.5c.44.45.99.67 1.63.67.64 0 1.19-.22 1.63-.67.44-.45.67-1.02.67-1.71999 0-.70001-.22-1.27001-.67-1.72002-.44-.45001-.99-.67001-1.63-.67001-.64 0-1.19.22-1.63.67001-.44.45001-.67 1.02001-.67 1.72002 0 .69999.23 1.26999.67 1.71999zm5.8 1.28V6.99988h.94l2.92 4.67002h.03l-.03-1.16V6.99988h.77v6.00002h-.8l-3.05-4.89002h-.03l.03 1.16v3.73002h-.78z" fill="#fff" stroke="#fff" stroke-width=".2" stroke-miterlimit="10"/><path d="M68.14 21.75c-2.35 0-4.27 1.79-4.27 4.25 0 2.45 1.92 4.25 4.27 4.25 2.35 0 4.27-1.8 4.27-4.25 0-2.46-1.92-4.25-4.27-4.25zm0 6.83c-1.29 0-2.4-1.06-2.4-2.58 0-1.53 1.11-2.58 2.4-2.58 1.29 0 2.4 1.05 2.4 2.58 0 1.52-1.12 2.58-2.4 2.58zm-9.32-6.83c-2.35 0-4.27 1.79-4.27 4.25 0 2.45 1.92 4.25 4.27 4.25 2.35 0 4.27-1.8 4.27-4.25 0-2.46-1.92-4.25-4.27-4.25zm0 6.83c-1.29 0-2.4-1.06-2.4-2.58 0-1.53 1.11-2.58 2.4-2.58 1.29 0 2.4 1.05 2.4 2.58 0 1.52-1.11 2.58-2.4 2.58zm-11.08-5.52v1.8h4.32c-.13 1.01-.47 1.76-.98 2.27-.63.63-1.61 1.32-3.33 1.32-2.66 0-4.74-2.14-4.74-4.8 0-2.66 2.08-4.8001 4.74-4.8001 1.43 0 2.48.56 3.25 1.29l1.27-1.27c-1.08-1.03-2.51-1.82-4.53-1.82-3.64 0-6.7 2.96-6.7 6.6101 0 3.64 3.06 6.61 6.7 6.61 1.97 0 3.45-.64 4.61-1.85 1.19-1.19 1.56-2.87 1.56-4.22 0-.42-.03-.81-.1-1.13h-6.07v-.01zm45.31 1.4c-.35-.95-1.43-2.71-3.64-2.71-2.19 0-4.01 1.72-4.01 4.25 0 2.38 1.8 4.25 4.22 4.25 1.95 0 3.08-1.19 3.54-1.88l-1.45-.97c-.48.71-1.14 1.18-2.09 1.18s-1.63-.44-2.06-1.29l5.69-2.35-.2-.48zm-5.8 1.42c-.05-1.64 1.27-2.48 2.22-2.48.74 0 1.37.37 1.58.9l-3.8 1.58zM82.63 30h1.87V17.4999h-1.87V30zm-3.06-7.3h-.07c-.42-.5-1.22-.95-2.24-.95-2.13 0-4.08 1.87-4.08 4.27 0 2.38 1.95 4.24 4.08 4.24 1.01 0 1.82-.45 2.24-.97h.06v.61c0 1.63-.87 2.5-2.27 2.5-1.14 0-1.85-.82-2.14-1.51l-1.63.68c.47 1.13 1.71 2.51 3.77 2.51 2.19 0 4.04-1.29 4.04-4.43v-7.64h-1.77v.69h.01zm-2.15 5.88c-1.29 0-2.37-1.08-2.37-2.56 0-1.5 1.08-2.59 2.37-2.59 1.27 0 2.27 1.1 2.27 2.59.01 1.48-.99 2.56-2.27 2.56zm24.39-11.0801h-4.47V30h1.87v-4.74h2.61c2.07 0 4.1-1.5 4.1-3.88 0-2.3801-2.05-3.8801-4.11-3.8801zm.04 6.0201H99.2v-4.2901h2.65c1.4 0 2.19 1.16 2.19 2.1401 0 .98-.79 2.15-2.19 2.15zm11.54-1.79c-1.35 0-2.75.6-3.33 1.91l1.66.69c.35-.69 1.01-.92 1.7-.92.96 0 1.95.58 1.96 1.61v.13c-.34-.19-1.06-.48-1.95-.48-1.79 0-3.6.98-3.6 2.81 0 1.67 1.46 2.75 3.1 2.75 1.25 0 1.95-.56 2.38-1.22h.06v.97h1.8v-4.79c.01-2.22-1.65-3.46-3.78-3.46zm-.23 6.85c-.61 0-1.46-.31-1.46-1.06 0-.96 1.06-1.33 1.98-1.33.82 0 1.21.18 1.7.42-.14 1.15-1.14 1.97-2.22 1.97zM123.74 22l-2.14 5.42h-.06L119.32 22h-2.01l3.33 7.58-1.9 4.21h1.95L125.82 22h-2.08zm-16.8 8h1.87V17.4999h-1.87V30z" fill="#fff"/><path d="M10.44 7.53997c-.29.31-.46002.79-.46002 1.4V31.0599c0 .62.17002 1.1.46002 1.4l.07.07 12.39-12.38v-.3L10.51 7.46997l-.07.07z" fill="url(#paint0_linear)"/><path d="M27.03 24.2799l-4.13-4.13v-.3l4.13-4.1299.09.05 4.89 2.78c1.4.7899 1.4 2.0899 0 2.8899l-4.89 2.78-.09.06z" fill="url(#paint1_linear)"/><path d="M27.12 24.22L22.9 20 10.44 32.46c.46.49 1.22.55 2.08.06l14.6-8.3z" fill="url(#paint2_linear)"/><path d="M27.12 15.78L12.51 7.47999c-.86-.49-1.62-.43-2.08.06L22.9 20l4.22-4.22z" fill="url(#paint3_linear)"/><path opacity=".2" d="M27.03 24.13l-14.52 8.25c-.81.46-1.54.43-2 .01l-.07.07.07.07c.47.42 1.19.45 2-.01l14.61-8.3-.09-.09z" fill="#000"/><path opacity=".12" d="M10.44 32.3201c-.29-.31-.46002-.7899-.46002-1.3999v.15c0 .6199.17002 1.0999.46002 1.3999l.07-.07-.07-.08zM32.01 21.3l-4.99 2.8301.09.09L32 21.44c.7-.4 1.05-.92 1.05-1.44-.05.47-.4.94-1.04 1.3z" fill="#000"/><path opacity=".25" d="M12.51 7.61994L32.01 18.7c.63.36.99.82 1.05 1.3 0-.52-.35-1.05-1.05-1.44L12.51 7.47994c-1.4-.79-2.54003-.13-2.54003 1.47v.15c0-1.61 1.15003-2.27 2.54003-1.48z" fill="#fff"/><defs><linearGradient id="paint0_linear" x1="21.7997" y1="8.70967" x2="5.01737" y2="25.4921" gradientUnits="userSpaceOnUse"><stop stop-color="#00A0FF"/><stop offset=".00657445" stop-color="#00A1FF"/><stop offset=".2601" stop-color="#00BEFF"/><stop offset=".5122" stop-color="#00D2FF"/><stop offset=".7604" stop-color="#00DFFF"/><stop offset="1" stop-color="#00E3FF"/></linearGradient><linearGradient id="paint1_linear" x1="33.8344" y1="20.0013" x2="9.63756" y2="20.0013" gradientUnits="userSpaceOnUse"><stop stop-color="#FFE000"/><stop offset=".4087" stop-color="#FFBD00"/><stop offset=".7754" stop-color="orange"/><stop offset="1" stop-color="#FF9C00"/></linearGradient><linearGradient id="paint2_linear" x1="24.827" y1="22.2961" x2="2.06875" y2="45.0544" gradientUnits="userSpaceOnUse"><stop stop-color="#FF3A44"/><stop offset="1" stop-color="#C31162"/></linearGradient><linearGradient id="paint3_linear" x1="7.29727" y1=".176203" x2="17.4598" y2="10.3387" gradientUnits="userSpaceOnUse"><stop stop-color="#32A071"/><stop offset=".0685" stop-color="#2DA771"/><stop offset=".4762" stop-color="#15CF74"/><stop offset=".8009" stop-color="#06E775"/><stop offset="1" stop-color="#00F076"/></linearGradient></defs></svg>